<svg xmlns="http://www.w3.org/2000/svg" xmlns:xlink="http://www.w3.org/1999/xlink" width="614.4" height="460.8" viewBox="0 0 460.8 345.6"><defs><style>*{stroke-linejoin:round;stroke-linecap:butt}</style></defs><g id="figure_1"><path id="patch_1" d="M0 345.6h460.8V0H0z" style="fill:#282a36"/><g id="axes_1"><path id="patch_2" d="M57.6 307.584h357.12V41.472H57.6z" style="fill:#282a36"/><path id="PolyCollection_1" d="M73.834 297.349v-11443.193L75.458-65.245l1.623 105.49 1.623 46.63 1.623 27.726 1.624 18.87 1.623 13.892 1.623 10.765 1.623 8.651 1.624 7.145 1.623 6.026 1.623 5.167 1.623 4.492 1.624 3.95 1.623 3.507 1.623 3.138 1.623 2.83 1.624 2.566 1.623 2.34 1.623 2.145 1.623 1.973 1.624 1.823 1.623 1.69 1.623 1.572 1.624 1.466 1.623 1.371 1.623 1.285 1.623 1.206 1.624 1.136 1.623 1.071 1.623 1.012 1.623.957 1.624.906 1.623.86 1.623.818 1.623.777 1.624.74 1.623.704 1.623.673 1.623.642 1.624.613 1.623.587 1.623.56 1.623.538 1.624.515 1.623.493 1.623.474 1.623.454 1.624.435 1.623.419 1.623.402 1.623.386 1.624.371 1.623.357 1.623.343 1.623.33 1.624.317 1.623.305 1.623.293 1.623.282 1.624.271 1.623.26 1.623.251 1.624.241 1.623.232 1.623.222 1.623.214 1.624.205 1.623.196 1.623.189 1.623.18 1.624.174 1.623.165 1.623.159 1.623.15 1.624.145 1.623.138 1.623.13 1.623.125 1.624.118 1.623.112 1.623.106 1.623.1 1.624.094 1.623.088 1.623.082 1.623.077 1.624.07 1.623.066 1.623.06 1.623.055 1.624.049 1.623.044 1.623.039 1.623.033 1.624.028 1.623.024 1.623.017 1.623.013 1.624.008 1.623.003 1.623-.003 1.624-.008 1.623-.013 1.623-.017 1.623-.024 1.624-.028 1.623-.033 1.623-.039 1.623-.044 1.624-.05 1.623-.054 1.623-.06 1.623-.065 1.624-.071 1.623-.077 1.623-.082 1.623-.088 1.624-.094 1.623-.1 1.623-.106 1.623-.112 1.624-.118 1.623-.124 1.623-.131 1.623-.138 1.624-.144 1.623-.151 1.623-.159 1.623-.165 1.624-.173 1.623-.181 1.623-.189 1.623-.196 1.624-.205 1.623-.214 1.623-.222 1.623-.232 1.624-.24 1.623-.251 1.623-.26 1.624-.272 1.623-.282 1.623-.293 1.623-.305 1.624-.317 1.623-.33 1.623-.343 1.623-.357 1.624-.37 1.623-.387 1.623-.402 1.623-.419 1.624-.435 1.623-.454 1.623-.474 1.623-.493 1.624-.515 1.623-.537 1.623-.561 1.623-.587 1.624-.613 1.623-.642 1.623-.673 1.623-.705 1.624-.74 1.623-.776 1.623-.817 1.623-.86 1.624-.907 1.623-.957 1.623-1.012 1.623-1.07 1.624-1.137 1.623-1.206 1.623-1.285 1.623-1.37 1.624-1.467 1.623-1.571 1.623-1.69 1.624-1.824 1.623-1.973 1.623-2.145 1.623-2.34 1.624-2.566 1.623-2.83 1.623-3.138 1.623-3.507 1.624-3.95 1.623-4.492 1.623-5.167 1.623-6.026 1.624-7.145 1.623-8.651 1.623-10.765 1.623-13.891 1.624-18.87 1.623-27.727 1.623-46.63 1.623-105.49 1.624-11080.599V297.35H73.834" clip-path="url(#p9423fb7b74)" style="fill:#8be9fd"/><g id="matplotlib.axis_1"><g id="xtick_1"><g id="line2d_1"><defs><path id="m2b151669a1" d="M0 0v3.5" style="stroke:#f8f8f2;stroke-width:.8"/></defs><use xlink:href="#m2b151669a1" x="73.833" y="307.584" style="fill:#f8f8f2;stroke:#f8f8f2;stroke-width:.8"/></g><g id="text_1" style="fill:#f8f8f2" transform="matrix(.1 0 0 -.1 58.51 322.182)"><defs><path id="DejaVuSans-2212" d="M678 2272h4006v-531H678z" transform="scale(.01563)"/><path id="DejaVuSans-31" d="M794 531h1031v3560L703 3866v575l1116 225h631V531h1031V0H794z" transform="scale(.01563)"/><path id="DejaVuSans-2e" d="M684 794h660V0H684z" transform="scale(.01563)"/><path id="DejaVuSans-30" d="M2034 4250q-487 0-733-480-245-479-245-1442 0-959 245-1439 246-480 733-480 491 0 736 480 246 480 246 1439 0 963-246 1442-245 480-736 480m0 500q785 0 1199-621 414-620 414-1801 0-1178-414-1799Q2819-91 2034-91q-784 0-1198 620-414 621-414 1799 0 1181 414 1801 414 621 1198 621" transform="scale(.01563)"/></defs><use xlink:href="#DejaVuSans-2212"/><use xlink:href="#DejaVuSans-31" x="83.789"/><use xlink:href="#DejaVuSans-2e" x="147.412"/><use xlink:href="#DejaVuSans-30" x="179.199"/><use xlink:href="#DejaVuSans-30" x="242.822"/></g></g><g id="xtick_2"><use xlink:href="#m2b151669a1" id="line2d_2" x="114.415" y="307.584" style="fill:#f8f8f2;stroke:#f8f8f2;stroke-width:.8"/><g id="text_2" style="fill:#f8f8f2" transform="matrix(.1 0 0 -.1 99.092 322.182)"><defs><path id="DejaVuSans-37" d="M525 4666h3000v-269L1831 0h-659l1594 4134H525z" transform="scale(.01563)"/><path id="DejaVuSans-35" d="M691 4666h2478v-532H1269V2991q137 47 274 70 138 23 276 23 781 0 1237-428 457-428 457-1159 0-753-469-1171Q2575-91 1722-91q-294 0-599 50Q819 9 494 109v635q281-153 581-228t634-75q541 0 856 284 316 284 316 772 0 487-316 771-315 285-856 285-253 0-505-56-251-56-513-175z" transform="scale(.01563)"/></defs><use xlink:href="#DejaVuSans-2212"/><use xlink:href="#DejaVuSans-30" x="83.789"/><use xlink:href="#DejaVuSans-2e" x="147.412"/><use xlink:href="#DejaVuSans-37" x="179.199"/><use xlink:href="#DejaVuSans-35" x="242.822"/></g></g><g id="xtick_3"><use xlink:href="#m2b151669a1" id="line2d_3" x="154.996" y="307.584" style="fill:#f8f8f2;stroke:#f8f8f2;stroke-width:.8"/><g id="text_3" style="fill:#f8f8f2" transform="matrix(.1 0 0 -.1 139.674 322.182)"><use xlink:href="#DejaVuSans-2212"/><use xlink:href="#DejaVuSans-30" x="83.789"/><use xlink:href="#DejaVuSans-2e" x="147.412"/><use xlink:href="#DejaVuSans-35" x="179.199"/><use xlink:href="#DejaVuSans-30" x="242.822"/></g></g><g id="xtick_4"><use xlink:href="#m2b151669a1" id="line2d_4" x="195.578" y="307.584" style="fill:#f8f8f2;stroke:#f8f8f2;stroke-width:.8"/><g id="text_4" style="fill:#f8f8f2" transform="matrix(.1 0 0 -.1 180.256 322.182)"><defs><path id="DejaVuSans-32" d="M1228 531h2203V0H469v531q359 372 979 998 621 627 780 809 303 340 423 576 121 236 121 464 0 372-261 606-261 235-680 235-297 0-627-103-329-103-704-313v638q381 153 712 231 332 78 607 78 725 0 1156-363 431-362 431-968 0-288-108-546-107-257-392-607-78-91-497-524-418-433-1181-1211" transform="scale(.01563)"/></defs><use xlink:href="#DejaVuSans-2212"/><use xlink:href="#DejaVuSans-30" x="83.789"/><use xlink:href="#DejaVuSans-2e" x="147.412"/><use xlink:href="#DejaVuSans-32" x="179.199"/><use xlink:href="#DejaVuSans-35" x="242.822"/></g></g><g id="xtick_5"><use xlink:href="#m2b151669a1" id="line2d_5" x="236.16" y="307.584" style="fill:#f8f8f2;stroke:#f8f8f2;stroke-width:.8"/><g id="text_5" style="fill:#f8f8f2" transform="matrix(.1 0 0 -.1 225.027 322.182)"><use xlink:href="#DejaVuSans-30"/><use xlink:href="#DejaVuSans-2e" x="63.623"/><use xlink:href="#DejaVuSans-30" x="95.41"/><use xlink:href="#DejaVuSans-30" x="159.033"/></g></g><g id="xtick_6"><use xlink:href="#m2b151669a1" id="line2d_6" x="276.742" y="307.584" style="fill:#f8f8f2;stroke:#f8f8f2;stroke-width:.8"/><g id="text_6" style="fill:#f8f8f2" transform="matrix(.1 0 0 -.1 265.609 322.182)"><use xlink:href="#DejaVuSans-30"/><use xlink:href="#DejaVuSans-2e" x="63.623"/><use xlink:href="#DejaVuSans-32" x="95.41"/><use xlink:href="#DejaVuSans-35" x="159.033"/></g></g><g id="xtick_7"><use xlink:href="#m2b151669a1" id="line2d_7" x="317.324" y="307.584" style="fill:#f8f8f2;stroke:#f8f8f2;stroke-width:.8"/><g id="text_7" style="fill:#f8f8f2" transform="matrix(.1 0 0 -.1 306.19 322.182)"><use xlink:href="#DejaVuSans-30"/><use xlink:href="#DejaVuSans-2e" x="63.623"/><use xlink:href="#DejaVuSans-35" x="95.41"/><use xlink:href="#DejaVuSans-30" x="159.033"/></g></g><g id="xtick_8"><use xlink:href="#m2b151669a1" id="line2d_8" x="357.905" y="307.584" style="fill:#f8f8f2;stroke:#f8f8f2;stroke-width:.8"/><g id="text_8" style="fill:#f8f8f2" transform="matrix(.1 0 0 -.1 346.773 322.182)"><use xlink:href="#DejaVuSans-30"/><use xlink:href="#DejaVuSans-2e" x="63.623"/><use xlink:href="#DejaVuSans-37" x="95.41"/><use xlink:href="#DejaVuSans-35" x="159.033"/></g></g><g id="xtick_9"><use xlink:href="#m2b151669a1" id="line2d_9" x="398.487" y="307.584" style="fill:#f8f8f2;stroke:#f8f8f2;stroke-width:.8"/><g id="text_9" style="fill:#f8f8f2" transform="matrix(.1 0 0 -.1 387.354 322.182)"><use xlink:href="#DejaVuSans-31"/><use xlink:href="#DejaVuSans-2e" x="63.623"/><use xlink:href="#DejaVuSans-30" x="95.41"/><use xlink:href="#DejaVuSans-30" x="159.033"/></g></g></g><g id="matplotlib.axis_2"><g id="ytick_1"><g id="line2d_10"><defs><path id="mba3fa9c1fb" d="M0 0h-3.5" style="stroke:#f8f8f2;stroke-width:.8"/></defs><use xlink:href="#mba3fa9c1fb" x="57.6" y="297.349" style="fill:#f8f8f2;stroke:#f8f8f2;stroke-width:.8"/></g><use xlink:href="#DejaVuSans-30" id="text_10" style="fill:#f8f8f2" transform="matrix(.1 0 0 -.1 44.237 301.148)"/></g><g id="ytick_2"><use xlink:href="#mba3fa9c1fb" id="line2d_11" x="57.6" y="246.174" style="fill:#f8f8f2;stroke:#f8f8f2;stroke-width:.8"/><use xlink:href="#DejaVuSans-31" id="text_11" style="fill:#f8f8f2" transform="matrix(.1 0 0 -.1 44.237 249.973)"/></g><g id="ytick_3"><use xlink:href="#mba3fa9c1fb" id="line2d_12" x="57.6" y="194.998" style="fill:#f8f8f2;stroke:#f8f8f2;stroke-width:.8"/><use xlink:href="#DejaVuSans-32" id="text_12" style="fill:#f8f8f2" transform="matrix(.1 0 0 -.1 44.237 198.797)"/></g><g id="ytick_4"><use xlink:href="#mba3fa9c1fb" id="line2d_13" x="57.6" y="143.823" style="fill:#f8f8f2;stroke:#f8f8f2;stroke-width:.8"/><g id="text_13" style="fill:#f8f8f2" transform="matrix(.1 0 0 -.1 44.237 147.622)"><defs><path id="DejaVuSans-33" d="M2597 2516q453-97 707-404 255-306 255-756 0-690-475-1069Q2609-91 1734-91q-293 0-604 58T488 141v609q262-153 574-231 313-78 654-78 593 0 904 234t311 681q0 413-289 645-289 233-804 233h-544v519h569q465 0 712 186t247 536q0 359-255 551-254 193-729 193-260 0-557-57-297-56-653-174v562q360 100 674 150t592 50q719 0 1137-327 419-326 419-882 0-388-222-655t-631-370" transform="scale(.01563)"/></defs><use xlink:href="#DejaVuSans-33"/></g></g><g id="ytick_5"><use xlink:href="#mba3fa9c1fb" id="line2d_14" x="57.6" y="92.647" style="fill:#f8f8f2;stroke:#f8f8f2;stroke-width:.8"/><g id="text_14" style="fill:#f8f8f2" transform="matrix(.1 0 0 -.1 44.237 96.447)"><defs><path id="DejaVuSans-34" d="M2419 4116 825 1625h1594zm-166 550h794V1625h666v-525h-666V0h-628v1100H313v609z" transform="scale(.01563)"/></defs><use xlink:href="#DejaVuSans-34"/></g></g><g id="ytick_6"><use xlink:href="#mba3fa9c1fb" id="line2d_15" x="57.6" y="41.472" style="fill:#f8f8f2;stroke:#f8f8f2;stroke-width:.8"/><use xlink:href="#DejaVuSans-35" id="text_15" style="fill:#f8f8f2" transform="matrix(.1 0 0 -.1 44.237 45.271)"/></g></g><path id="line2d_16" d="m76.446-1 .635 41.245 1.623 46.63 1.623 27.726 1.624 18.87 1.623 13.892 1.623 10.765 1.623 8.651 1.624 7.145 1.623 6.026 1.623 5.167 1.623 4.492 1.624 3.95 1.623 3.507 1.623 3.138 1.623 2.83 1.624 2.566 1.623 2.34 3.246 4.118 3.247 3.514 3.247 3.037 3.246 2.656 3.247 2.342 3.246 2.083 3.247 1.863 3.246 1.678 4.87 2.221 4.87 1.928 4.87 1.685 4.87 1.482 6.492 1.71 6.493 1.457 6.493 1.245 8.117 1.305 8.116 1.07 8.116.866 9.74.806 9.74.582 9.739.377 11.362.198 11.363-.054 11.363-.308 9.74-.477 9.74-.691 9.739-.93 8.116-.985 8.116-1.206 8.117-1.468 6.493-1.4 6.493-1.643 4.87-1.421 4.87-1.613 4.869-1.842 4.87-2.117 4.87-2.455 3.246-1.863 3.246-2.083 3.247-2.342 3.246-2.656 3.247-3.037 3.247-3.514 3.246-4.118 1.623-2.34 1.624-2.566 1.623-2.83 1.623-3.138 1.623-3.507 1.624-3.95 1.623-4.492 1.623-5.167 1.623-6.026 1.624-7.145 1.623-8.651 1.623-10.765 1.623-13.891 1.624-18.87 1.623-27.727 1.623-46.63L395.874-1h0" clip-path="url(#p9423fb7b74)" style="fill:none;stroke:#8be9fd;stroke-width:1.5;stroke-linecap:square"/><path id="patch_3" d="M57.6 307.584V41.472" style="fill:none;stroke:#f8f8f2;stroke-width:.8;stroke-linejoin:miter;stroke-linecap:square"/><path id="patch_4" d="M414.72 307.584V41.472" style="fill:none;stroke:#f8f8f2;stroke-width:.8;stroke-linejoin:miter;stroke-linecap:square"/><path id="patch_5" d="M57.6 307.584h357.12" style="fill:none;stroke:#f8f8f2;stroke-width:.8;stroke-linejoin:miter;stroke-linecap:square"/><path id="patch_6" d="M57.6 41.472h357.12" style="fill:none;stroke:#f8f8f2;stroke-width:.8;stroke-linejoin:miter;stroke-linecap:square"/><g id="text_16" style="fill:#f8f8f2" transform="matrix(.12 0 0 -.12 196.26 35.232)"><defs><path id="DejaVuSansDisplay-222b" d="M2134 5525q38 738 394 1031 356 294 690 294 335 0 615-275t367-897l-656-65q-75 575-325 575-313 0-350-775L2581-597q-34-737-394-1031-359-294-690-294-334 0-614 275T516-750l656 66q75-575 325-575 312 0 350 771z" transform="scale(.01563)"/><path id="DejaVuSans-2f" d="M1625 4666h531L531-594H0z" transform="scale(.01563)"/><path id="STIXSizeOneSym-Regular-221a" d="M6970 9933 3373-1888h-269L1626 2918q-71 231-161 333-89 103-236 103-218 0-435-173l-77 128 1049 806h160L3379-602h26L6605 9933z" transform="scale(.01563)"/><path id="DejaVuSans-Oblique-78" d="M3841 3500 2234 1784 3219 0h-660l-740 1388L531 0h-697l1722 1844-915 1656h659l672-1266 1172 1266z" transform="scale(.01563)"/></defs><use xlink:href="#DejaVuSansDisplay-222b" transform="translate(0 .81)"/><use xlink:href="#DejaVuSans-31" transform="matrix(.7 0 0 .7 86.744 85.966)"/><use xlink:href="#DejaVuSans-2212" transform="matrix(.7 0 0 .7 71.76 -51.097)"/><use xlink:href="#DejaVuSans-31" transform="matrix(.7 0 0 .7 130.412 -51.097)"/><use xlink:href="#DejaVuSans-31" transform="translate(174.948 .81)"/><use xlink:href="#DejaVuSans-2f" transform="translate(238.571 .81)"/><use xlink:href="#STIXSizeOneSym-Regular-221a" transform="matrix(.65773 0 0 .65773 272.263 20.278)"/><use xlink:href="#DejaVuSans-31" transform="translate(354.26 1.231)"/><use xlink:href="#DejaVuSans-2212" transform="translate(437.366 1.231)"/><use xlink:href="#DejaVuSans-Oblique-78" transform="translate(540.637 1.231)"/><use xlink:href="#DejaVuSans-32" transform="matrix(.7 0 0 .7 604.283 39.513)"/><path d="M341.76 116.216v6.25h322.294v-6.25H341.76"/></g></g></g><defs><clipPath id="p9423fb7b74"><path d="M57.6 41.472h357.12v266.112H57.6z"/></clipPath></defs></svg>